<?xml version="1.0" encoding="UTF-8" standalone="no"?>
<svg width="22px" height="4px" viewBox="0 0 22 4" version="1.1" xmlns="http://www.w3.org/2000/svg" xmlns:xlink="http://www.w3.org/1999/xlink" xmlns:sketch="http://www.bohemiancoding.com/sketch/ns">
    <!-- Generator: Sketch 3.3.1 (12005) - http://www.bohemiancoding.com/sketch -->
    <title>Options</title>
    <desc>Created with Sketch.</desc>
    <defs></defs>
    <g id="Symbols" stroke="none" stroke-width="1" fill="none" fill-rule="evenodd" sketch:type="MSPage">
        <g id="Icons-Copy-5" sketch:type="MSLayerGroup" transform="translate(-99.000000, -20.000000)">
            <g id="Options" transform="translate(88.000000, 0.000000)" sketch:type="MSShapeGroup">
                <rect id="Rectangle-1-Copy-2" x="0" y="0" width="44" height="44"></rect>
                <path d="M13,24 C14.1045695,24 15,23.1045695 15,22 C15,20.8954305 14.1045695,20 13,20 C11.8954305,20 11,20.8954305 11,22 C11,23.1045695 11.8954305,24 13,24 Z M22,24 C23.1045695,24 24,23.1045695 24,22 C24,20.8954305 23.1045695,20 22,20 C20.8954305,20 20,20.8954305 20,22 C20,23.1045695 20.8954305,24 22,24 Z M31,24 C32.1045695,24 33,23.1045695 33,22 C33,20.8954305 32.1045695,20 31,20 C29.8954305,20 29,20.8954305 29,22 C29,23.1045695 29.8954305,24 31,24 Z" id="Oval-1" fill="#737373"></path>
            </g>
        </g>
    </g>
</svg>