<?xml version="1.0" encoding="UTF-8" standalone="no"?>
<svg width="20px" height="12px" viewBox="0 0 20 12" version="1.1" xmlns="http://www.w3.org/2000/svg" xmlns:xlink="http://www.w3.org/1999/xlink" xmlns:sketch="http://www.bohemiancoding.com/sketch/ns">
    <!-- Generator: Sketch 3.3.2 (12043) - http://www.bohemiancoding.com/sketch -->
    <title>View</title>
    <desc>Created with Sketch.</desc>
    <defs></defs>
    <g id="Symbols" stroke="none" stroke-width="1" fill="none" fill-rule="evenodd" sketch:type="MSPage">
        <g id="Icons-Copy-2" sketch:type="MSLayerGroup" transform="translate(-56.000000, -16.000000)">
            <g id="View" transform="translate(44.000000, 0.000000)" sketch:type="MSShapeGroup">
                <rect id="Rectangle-1-Copy" x="0" y="0" width="44" height="44"></rect>
                <path d="M22,27.5 C27.3157407,27.5 31.625,22 31.625,22 C31.625,22 27.3157407,16.5 22,16.5 C16.6842593,16.5 12.375,22 12.375,22 C12.375,22 16.6842593,27.5 22,27.5 Z M22,24.0625 C23.1390873,24.0625 24.0625,23.1390873 24.0625,22 C24.0625,20.8609127 23.1390873,19.9375 22,19.9375 C20.8609127,19.9375 19.9375,20.8609127 19.9375,22 C19.9375,23.1390873 20.8609127,24.0625 22,24.0625 Z" id="Oval-1-Copy-3" fill="#000000"></path>
            </g>
        </g>
    </g>
</svg>